# Blender 4.2.2 LTS
# www.blender.org
mtllib pizza.mtl
o Pizza
v 0.000000 -0.051908 -1.000000
v -0.000000 0.025969 -0.893635
v 0.195090 -0.051908 -0.980785
v 0.174340 0.006110 -0.876464
v 0.382683 -0.051908 -0.923879
v 0.341979 -0.010847 -0.825611
v 0.555570 -0.051908 -0.831470
v 0.496477 -0.010847 -0.743030
v 0.707107 -0.051908 -0.707107
v 0.631895 0.006110 -0.631895
v 0.831470 -0.051908 -0.555570
v 0.743030 0.014495 -0.496477
v 0.923879 -0.051908 -0.382683
v 0.825611 0.014495 -0.341979
v 0.980785 -0.051908 -0.195090
v 0.876464 0.014495 -0.174340
v 1.000000 -0.051908 0.000000
v 0.893635 0.027056 0.000000
v 0.980785 -0.051908 0.195090
v 0.876464 0.055966 0.174340
v 0.923879 -0.051908 0.382683
v 0.825611 0.055966 0.341979
v 0.831470 -0.051908 0.555570
v 0.743030 0.027056 0.496477
v 0.707107 -0.051908 0.707107
v 0.631895 0.014495 0.631895
v 0.555570 -0.051908 0.831470
v 0.496477 0.014495 0.743030
v 0.382683 -0.051908 0.923879
v 0.341979 0.023364 0.825611
v 0.195090 -0.051908 0.980785
v 0.174340 0.043390 0.876464
v 0.000000 -0.051908 1.000000
v -0.000000 0.043390 0.893635
v -0.195090 -0.051908 0.980785
v -0.174340 0.018768 0.876464
v -0.382683 -0.051908 0.923879
v -0.341979 0.001174 0.825611
v -0.555570 -0.051908 0.831470
v -0.496477 0.001174 0.743030
v -0.707107 -0.051908 0.707107
v -0.631895 0.010173 0.631895
v -0.831470 -0.051908 0.555570
v -0.743030 0.022764 0.496477
v -0.923879 -0.051908 0.382683
v -0.825611 0.041378 0.341979
v -0.980785 -0.051908 0.195090
v -0.876464 0.041378 0.174340
v -1.000000 -0.051908 0.000000
v -0.893635 0.022764 0.000000
v -0.980785 -0.051908 -0.195090
v -0.876464 0.006526 -0.174340
v -0.923879 -0.051908 -0.382683
v -0.825611 -0.009640 -0.341979
v -0.831470 -0.051908 -0.555570
v -0.743030 -0.009640 -0.496477
v -0.707107 -0.051908 -0.707107
v -0.631895 0.006526 -0.631895
v -0.555570 -0.051908 -0.831470
v -0.496477 0.025969 -0.743030
v -0.382683 -0.051908 -0.923879
v -0.341979 0.052233 -0.825611
v -0.195090 -0.051908 -0.980785
v -0.174340 0.052233 -0.876464
v 0.195090 -0.015642 -0.980785
v 0.000000 -0.005793 -1.000000
v 0.382683 -0.029799 -0.923879
v 0.555570 -0.029799 -0.831470
v 0.707107 -0.015642 -0.707107
v 0.831470 -0.011463 -0.555570
v 0.923879 -0.011463 -0.382683
v 0.980785 -0.011463 -0.195090
v 1.000000 -0.005257 0.000000
v 0.980785 0.022787 0.195090
v 0.923879 0.022787 0.382683
v 0.831470 -0.005257 0.555570
v 0.707107 -0.011463 0.707107
v 0.555570 -0.011463 0.831470
v 0.382683 -0.007076 0.923879
v 0.195090 0.011969 0.980785
v 0.000000 0.011969 1.000000
v -0.195090 -0.009324 0.980785
v -0.382683 -0.021417 0.923879
v -0.555570 -0.021417 0.831470
v -0.707107 -0.013613 0.707107
v -0.831470 -0.007372 0.555570
v -0.923879 0.010269 0.382683
v -0.980785 0.010269 0.195090
v -1.000000 -0.007372 0.000000
v -0.980785 -0.015434 -0.195090
v -0.923879 -0.028986 -0.382683
v -0.831470 -0.028986 -0.555570
v -0.707107 -0.015434 -0.707107
v -0.555570 -0.005793 -0.831470
v -0.382683 0.019542 -0.923879
v -0.195090 0.019542 -0.980785
v 0.166933 0.004327 -0.839229
v -0.000000 0.022811 -0.855670
v 0.327451 -0.012796 -0.790536
v 0.475385 -0.012796 -0.711464
v 0.605050 0.004327 -0.605050
v 0.711464 0.012214 -0.475385
v 0.790536 0.012214 -0.327451
v 0.839229 0.012214 -0.166933
v 0.855670 0.023806 0.000000
v 0.839229 0.050371 0.166933
v 0.790536 0.050371 0.327451
v 0.711464 0.023806 0.475385
v 0.605050 0.012214 0.605050
v 0.475385 0.012214 0.711464
v 0.327451 0.020422 0.790536
v 0.166933 0.039066 0.839229
v -0.000000 0.039066 0.855670
v -0.166933 0.016100 0.839229
v -0.327451 -0.000718 0.790536
v -0.475385 -0.000718 0.711464
v -0.605050 0.008167 0.605050
v -0.711464 0.019871 0.475385
v -0.790536 0.037238 0.327451
v -0.839229 0.037238 0.166933
v -0.855670 0.019871 0.000000
v -0.839229 0.004722 -0.166933
v -0.790536 -0.011562 -0.327451
v -0.711464 -0.011562 -0.475385
v -0.605050 0.004722 -0.605050
v -0.475385 0.022811 -0.711464
v -0.327451 0.047034 -0.790536
v -0.166933 0.047034 -0.839229
v 0.157219 0.008610 -0.790395
v -0.000000 0.022785 -0.805880
v 0.308397 -0.007508 -0.744536
v 0.447723 -0.007508 -0.670064
v 0.569843 0.008610 -0.569843
v 0.670064 0.014793 -0.447723
v 0.744536 0.014793 -0.308397
v 0.790395 0.014793 -0.157219
v 0.805880 0.023518 0.000000
v 0.790395 0.046077 0.157219
v 0.744536 0.046077 0.308397
v 0.670064 0.023518 0.447723
v 0.569843 0.014793 0.569843
v 0.447723 0.014793 0.670064
v 0.308397 0.021011 0.744536
v 0.157219 0.037110 0.790395
v -0.000000 0.037110 0.805880
v -0.157219 0.017734 0.790395
v -0.308397 0.003462 0.744536
v -0.447723 0.003462 0.670064
v -0.569843 0.011648 0.569843
v -0.670064 0.020600 0.447723
v -0.744536 0.035638 0.308397
v -0.790395 0.035638 0.157219
v -0.805880 0.020600 0.000000
v -0.790395 0.008925 -0.157219
v -0.744536 -0.006369 -0.308397
v -0.670064 -0.006369 -0.447723
v -0.569843 0.008925 -0.569843
v -0.447723 0.022785 -0.670064
v -0.308397 0.043455 -0.744536
v -0.157219 0.043455 -0.790395
vn 0.0980 -0.0000 -0.9952
vn 0.2903 -0.0000 -0.9569
vn 0.4714 -0.0000 -0.8819
vn 0.6344 -0.0000 -0.7730
vn 0.7730 -0.0000 -0.6344
vn 0.8819 -0.0000 -0.4714
vn 0.9569 -0.0000 -0.2903
vn 0.9952 -0.0000 -0.0980
vn 0.9952 -0.0000 0.0980
vn 0.9569 -0.0000 0.2903
vn 0.8819 -0.0000 0.4714
vn 0.7730 -0.0000 0.6344
vn 0.6344 -0.0000 0.7730
vn 0.4714 -0.0000 0.8819
vn 0.2903 -0.0000 0.9569
vn 0.0980 -0.0000 0.9952
vn -0.0980 -0.0000 0.9952
vn -0.2903 -0.0000 0.9569
vn -0.4714 -0.0000 0.8819
vn -0.6344 -0.0000 0.7730
vn -0.7730 -0.0000 0.6344
vn -0.8819 -0.0000 0.4714
vn -0.9569 -0.0000 0.2903
vn -0.9952 -0.0000 0.0980
vn -0.9952 -0.0000 -0.0980
vn -0.9569 -0.0000 -0.2903
vn -0.8819 -0.0000 -0.4714
vn -0.7730 -0.0000 -0.6344
vn -0.6344 -0.0000 -0.7730
vn -0.4714 -0.0000 -0.8819
vn -0.0382 0.9982 -0.0466
vn -0.2903 -0.0000 -0.9569
vn -0.0980 -0.0000 -0.9952
vn -0.0000 -1.0000 -0.0000
vn 0.1009 0.9666 -0.2356
vn 0.1331 0.9787 -0.1563
vn 0.0831 0.9843 -0.1554
vn 0.0560 0.9787 -0.1975
vn 0.1489 0.9750 -0.1649
vn 0.2100 0.9712 -0.1123
vn 0.2279 0.9712 -0.0691
vn 0.2590 0.9630 -0.0744
vn 0.3052 0.9452 -0.1157
vn 0.2862 0.9542 0.0868
vn 0.1895 0.9452 0.2657
vn 0.1740 0.9630 0.2058
vn 0.1511 0.9712 0.1841
vn 0.1517 0.9657 0.2106
vn 0.1772 0.9550 0.2379
vn 0.0279 0.9587 0.2832
vn -0.1440 0.9559 0.2558
vn -0.1416 0.9696 0.1996
vn -0.0984 0.9780 0.1841
vn -0.1015 0.9759 0.1933
vn -0.1594 0.9679 0.1944
vn -0.2000 0.9564 0.2128
vn -0.2698 0.9594 0.0818
vn -0.2845 0.9564 -0.0658
vn -0.2311 0.9691 -0.0865
vn -0.1600 0.9785 -0.1304
vn -0.1586 0.9837 -0.0848
vn -0.1973 0.9785 -0.0606
vn -0.2141 0.9665 -0.1415
vn -0.2523 0.9483 -0.1925
vn -0.0857 0.9555 -0.2824
vn 0.1029 0.9483 -0.3002
vn -0.0039 0.9992 -0.0392
vn 0.0448 0.9987 0.0240
vn 0.0113 0.9964 -0.0841
vn 0.1040 0.9917 0.0754
vn -0.0218 0.9944 0.1038
vn 0.0791 0.9892 -0.1234
vn 0.0803 0.9939 0.0756
vn -0.0426 0.9920 0.1192
vn -0.0111 0.9935 -0.1132
vn -0.0243 0.9987 0.0454
vn -0.0764 0.9835 0.1642
vn -0.1273 0.9864 -0.1043
vn -0.1075 0.9939 -0.0247
vn 0.0396 0.9907 0.1304
vn -0.0780 0.9932 -0.0863
vn -0.0715 0.9974 -0.0026
vn 0.1548 0.9835 0.0940
vn 0.0236 0.9987 -0.0441
vn -0.0531 0.9982 0.0284
vn 0.0728 0.9973 -0.0068
vn -0.0577 0.9982 0.0175
vn 0.0946 0.9954 0.0136
vn -0.0793 0.9949 -0.0626
vn 0.1303 0.9903 0.0482
vn -0.0987 0.9806 -0.1691
vn 0.1042 0.9941 -0.0316
vn -0.1402 0.9892 -0.0425
vn 0.0815 0.9903 -0.1124
vn -0.1760 0.9806 0.0858
vn 0.0704 0.9939 -0.0845
vn -0.1007 0.9949 0.0080
vn 0.0742 0.9944 -0.0758
vn -0.0034 1.0000 -0.0058
vn 0.0500 0.9944 -0.0936
vn -0.1034 0.9900 0.0961
vn -0.1280 0.9917 -0.0158
vn -0.0174 0.9903 -0.1380
vn 0.0209 0.9974 0.0690
vn -0.1077 0.9938 0.0283
vn 0.0260 0.9967 -0.0771
vn 0.1393 0.9900 0.0225
vn -0.0396 0.9965 0.0741
vn 0.0458 0.9986 -0.0245
vn -0.0085 0.9957 0.0926
vn 0.0497 0.9986 -0.0151
vn 0.0074 0.9971 0.0758
vn 0.0169 0.9978 -0.0642
vn 0.0544 0.9950 0.0832
vn -0.0308 0.9878 -0.1527
vn 0.0309 0.9995 -0.0094
vn -0.0826 0.9963 -0.0251
vn -0.0010 0.9950 -0.0994
vn -0.1105 0.9878 0.1099
vn -0.0413 0.9954 -0.0864
vn -0.0216 0.9978 0.0627
vn -0.0620 0.9909 -0.1192
vn 0.0330 0.9986 0.0402
vn -0.0919 0.9946 -0.0491
vn 0.0540 0.9985 0.0073
vn 0.1034 0.9941 -0.0327
vn -0.1336 0.9909 0.0147
vn 0.0975 0.9943 -0.0439
vn 0.1245 0.9903 -0.0622
vn -0.1020 0.9943 0.0295
vt 0.809120 0.713078
vt 0.808943 0.727805
vt 0.788820 0.721731
vt 0.789027 0.710150
vt 0.768761 0.713361
vt 0.768912 0.706346
vt 0.748319 0.709908
vt 0.748480 0.702968
vt 0.727479 0.711389
vt 0.727758 0.700097
vt 0.706495 0.710165
vt 0.706824 0.697608
vt 0.685409 0.707971
vt 0.685757 0.695381
vt 0.664270 0.705984
vt 0.664636 0.693300
vt 0.643106 0.706019
vt 0.643537 0.691261
vt 0.621911 0.712806
vt 0.622515 0.689238
vt 0.601263 0.711790
vt 0.601793 0.688151
vt 0.581274 0.703321
vt 0.581578 0.688496
vt 0.561638 0.702460
vt 0.561858 0.689788
vt 0.542279 0.704928
vt 0.542427 0.692314
vt 0.522978 0.710523
vt 0.523043 0.696512
vt 0.503044 0.722473
vt 0.503026 0.702291
vt 0.482016 0.729673
vt 0.481855 0.709406
vt 0.460228 0.729732
vt 0.459985 0.716115
vt 0.438022 0.730827
vt 0.437767 0.721084
vt 0.415577 0.733203
vt 0.415310 0.723594
vt 0.393162 0.736652
vt 0.392844 0.724752
vt 0.371025 0.739832
vt 0.370662 0.726100
vt 0.349386 0.747092
vt 0.348884 0.727986
vt 0.328200 0.749941
vt 0.327648 0.730688
vt 0.307581 0.748322
vt 0.307131 0.734352
vt 0.287672 0.750567
vt 0.287330 0.738964
vt 0.267515 0.751419
vt 0.267336 0.744099
vt 0.247430 0.755743
vt 0.247288 0.748423
vt 0.227366 0.763343
vt 0.227205 0.751695
vt 0.207205 0.768518
vt 0.207093 0.753791
vt 0.186988 0.777447
vt 0.186965 0.754630
vt 0.690853 0.215627
vt 0.743592 0.258908
vt 0.733137 0.269363
vt 0.682639 0.227921
vt 0.849368 0.715251
vt 0.849391 0.738068
vt 0.829109 0.737618
vt 0.829237 0.714800
vt 0.609325 0.905298
vt 0.635824 0.902688
vt 0.661304 0.894959
vt 0.684786 0.882407
vt 0.705369 0.865516
vt 0.722260 0.844933
vt 0.734812 0.821451
vt 0.742541 0.795971
vt 0.745151 0.769472
vt 0.742541 0.742974
vt 0.734812 0.717494
vt 0.722260 0.694012
vt 0.705369 0.673429
vt 0.684786 0.656538
vt 0.661304 0.643986
vt 0.635824 0.636257
vt 0.609325 0.633647
vt 0.582827 0.636257
vt 0.557347 0.643986
vt 0.533865 0.656538
vt 0.513282 0.673429
vt 0.496390 0.694012
vt 0.483839 0.717494
vt 0.476110 0.742974
vt 0.473500 0.769472
vt 0.476110 0.795971
vt 0.483839 0.821451
vt 0.496390 0.844933
vt 0.513282 0.865516
vt 0.533865 0.882407
vt 0.557347 0.894959
vt 0.582827 0.902688
vt 0.497500 0.853026
vt 0.565397 0.846339
vt 0.573478 0.886967
vt 0.497500 0.894450
vt 0.630684 0.826535
vt 0.646536 0.864805
vt 0.690853 0.794373
vt 0.713867 0.828816
vt 0.743592 0.751092
vt 0.772883 0.780383
vt 0.786873 0.698353
vt 0.821316 0.721367
vt 0.819035 0.638184
vt 0.857305 0.654036
vt 0.838839 0.572897
vt 0.879467 0.580978
vt 0.845526 0.505000
vt 0.886950 0.505000
vt 0.838839 0.437103
vt 0.879467 0.429022
vt 0.819035 0.371816
vt 0.857305 0.355964
vt 0.786873 0.311647
vt 0.821316 0.288633
vt 0.772883 0.229617
vt 0.713867 0.181184
vt 0.630684 0.183466
vt 0.646536 0.145195
vt 0.565397 0.163661
vt 0.573478 0.123033
vt 0.497500 0.156974
vt 0.497500 0.115550
vt 0.429603 0.163661
vt 0.421522 0.123033
vt 0.364316 0.183466
vt 0.348464 0.145195
vt 0.304147 0.215627
vt 0.281133 0.181184
vt 0.251408 0.258908
vt 0.222117 0.229617
vt 0.208127 0.311647
vt 0.173684 0.288633
vt 0.175966 0.371816
vt 0.137695 0.355964
vt 0.156161 0.437103
vt 0.115533 0.429022
vt 0.149474 0.505000
vt 0.108050 0.505000
vt 0.156161 0.572897
vt 0.115533 0.580978
vt 0.175966 0.638184
vt 0.137695 0.654036
vt 0.208127 0.698353
vt 0.173684 0.721367
vt 0.251408 0.751092
vt 0.222117 0.780383
vt 0.304147 0.794373
vt 0.281133 0.828816
vt 0.364316 0.826535
vt 0.348464 0.864805
vt 0.429603 0.846339
vt 0.421522 0.886967
vt 0.497500 0.171759
vt 0.562512 0.178162
vt 0.558729 0.197181
vt 0.497500 0.191150
vt 0.189626 0.632526
vt 0.220421 0.690139
vt 0.625026 0.197126
vt 0.497500 0.838241
vt 0.562512 0.831838
vt 0.261863 0.740637
vt 0.625026 0.812874
vt 0.312361 0.782080
vt 0.682639 0.782080
vt 0.369974 0.812874
vt 0.432488 0.178162
vt 0.733137 0.740637
vt 0.432488 0.831838
vt 0.369974 0.197126
vt 0.774580 0.690139
vt 0.312361 0.227921
vt 0.805374 0.632526
vt 0.261863 0.269363
vt 0.824338 0.570012
vt 0.220421 0.319861
vt 0.830741 0.505000
vt 0.189626 0.377474
vt 0.824338 0.439988
vt 0.170662 0.439988
vt 0.805374 0.377474
vt 0.164259 0.505000
vt 0.774580 0.319861
vt 0.170662 0.570012
vt 0.558729 0.812819
vt 0.497500 0.818850
vt 0.436271 0.812819
vt 0.377395 0.794960
vt 0.323134 0.765957
vt 0.275575 0.726925
vt 0.236543 0.679366
vt 0.207541 0.625105
vt 0.189681 0.566229
vt 0.183650 0.505000
vt 0.189681 0.443771
vt 0.207541 0.384895
vt 0.236543 0.330634
vt 0.275575 0.283075
vt 0.323134 0.244043
vt 0.377395 0.215040
vt 0.436271 0.197181
vt 0.617605 0.215040
vt 0.671866 0.244043
vt 0.719425 0.283075
vt 0.758457 0.330634
vt 0.787459 0.384895
vt 0.805319 0.443771
vt 0.811350 0.505000
vt 0.805319 0.566229
vt 0.787459 0.625105
vt 0.758457 0.679366
vt 0.719425 0.726925
vt 0.671866 0.765957
vt 0.617605 0.794960
s 0
usemtl Pizza
f 28/63/31 26/64/31 109/65/31 110/66/31
f 2/103/35 4/104/35 65/105/35 66/106/35
f 4/104/36 6/107/36 67/108/36 65/105/36
f 6/107/37 8/109/37 68/110/37 67/108/37
f 8/109/38 10/111/38 69/112/38 68/110/38
f 10/111/39 12/113/39 70/114/39 69/112/39
f 12/113/40 14/115/40 71/116/40 70/114/40
f 14/115/41 16/117/41 72/118/41 71/116/41
f 16/117/42 18/119/42 73/120/42 72/118/42
f 18/119/43 20/121/43 74/122/43 73/120/43
f 20/121/44 22/123/44 75/124/44 74/122/44
f 22/123/45 24/125/45 76/126/45 75/124/45
f 24/125/46 26/64/46 77/127/46 76/126/46
f 26/64/47 28/63/47 78/128/47 77/127/47
f 28/63/48 30/129/48 79/130/48 78/128/48
f 30/129/49 32/131/49 80/132/49 79/130/49
f 32/131/50 34/133/50 81/134/50 80/132/50
f 34/133/51 36/135/51 82/136/51 81/134/51
f 36/135/52 38/137/52 83/138/52 82/136/52
f 38/137/53 40/139/53 84/140/53 83/138/53
f 40/139/54 42/141/54 85/142/54 84/140/54
f 42/141/55 44/143/55 86/144/55 85/142/55
f 44/143/56 46/145/56 87/146/56 86/144/56
f 46/145/57 48/147/57 88/148/57 87/146/57
f 48/147/58 50/149/58 89/150/58 88/148/58
f 50/149/59 52/151/59 90/152/59 89/150/59
f 52/151/60 54/153/60 91/154/60 90/152/60
f 54/153/61 56/155/61 92/156/61 91/154/61
f 56/155/62 58/157/62 93/158/62 92/156/62
f 58/157/63 60/159/63 94/160/63 93/158/63
f 60/159/64 62/161/64 95/162/64 94/160/64
f 62/161/65 64/163/65 96/164/65 95/162/65
f 64/163/66 2/103/66 66/106/66 96/164/66
f 113/165/67 112/166/67 144/167/67 145/168/67
f 56/155/68 54/153/68 123/169/68 124/170/68
f 30/129/69 28/63/69 110/66/69 111/171/69
f 4/104/70 2/103/70 98/172/70 97/173/70
f 58/157/71 56/155/71 124/170/71 125/174/71
f 32/131/72 30/129/72 111/171/72 112/166/72
f 6/107/73 4/104/73 97/173/73 99/175/73
f 60/159/74 58/157/74 125/174/74 126/176/74
f 34/133/75 32/131/75 112/166/75 113/165/75
f 8/109/76 6/107/76 99/175/76 100/177/76
f 62/161/77 60/159/77 126/176/77 127/178/77
f 36/135/78 34/133/78 113/165/78 114/179/78
f 10/111/79 8/109/79 100/177/79 101/180/79
f 64/163/80 62/161/80 127/178/80 128/181/80
f 38/137/81 36/135/81 114/179/81 115/182/81
f 12/113/82 10/111/82 101/180/82 102/183/82
f 2/103/83 64/163/83 128/181/83 98/172/83
f 40/139/84 38/137/84 115/182/84 116/184/84
f 14/115/85 12/113/85 102/183/85 103/185/85
f 42/141/86 40/139/86 116/184/86 117/186/86
f 16/117/87 14/115/87 103/185/87 104/187/87
f 44/143/88 42/141/88 117/186/88 118/188/88
f 18/119/89 16/117/89 104/187/89 105/189/89
f 46/145/90 44/143/90 118/188/90 119/190/90
f 20/121/91 18/119/91 105/189/91 106/191/91
f 48/147/92 46/145/92 119/190/92 120/192/92
f 22/123/93 20/121/93 106/191/93 107/193/93
f 50/149/94 48/147/94 120/192/94 121/194/94
f 24/125/95 22/123/95 107/193/95 108/195/95
f 52/151/96 50/149/96 121/194/96 122/196/96
f 26/64/97 24/125/97 108/195/97 109/65/97
f 54/153/98 52/151/98 122/196/98 123/169/98
f 129/197/99 130/198/99 160/199/99 159/200/99 158/201/99 157/202/99 156/203/99 155/204/99 154/205/99 153/206/99 152/207/99 151/208/99 150/209/99 149/210/99 148/211/99 147/212/99 146/213/99 145/168/99 144/167/99 143/214/99 142/215/99 141/216/99 140/217/99 139/218/99 138/219/99 137/220/99 136/221/99 135/222/99 134/223/99 133/224/99 132/225/99 131/226/99
f 100/177/100 99/175/100 131/226/100 132/225/100
f 127/178/101 126/176/101 158/201/101 159/200/101
f 114/179/102 113/165/102 145/168/102 146/213/102
f 101/180/103 100/177/103 132/225/103 133/224/103
f 128/181/104 127/178/104 159/200/104 160/199/104
f 115/182/105 114/179/105 146/213/105 147/212/105
f 102/183/106 101/180/106 133/224/106 134/223/106
f 98/172/107 128/181/107 160/199/107 130/198/107
f 116/184/108 115/182/108 147/212/108 148/211/108
f 103/185/109 102/183/109 134/223/109 135/222/109
f 117/186/110 116/184/110 148/211/110 149/210/110
f 104/187/111 103/185/111 135/222/111 136/221/111
f 118/188/112 117/186/112 149/210/112 150/209/112
f 105/189/113 104/187/113 136/221/113 137/220/113
f 119/190/114 118/188/114 150/209/114 151/208/114
f 106/191/115 105/189/115 137/220/115 138/219/115
f 120/192/116 119/190/116 151/208/116 152/207/116
f 107/193/117 106/191/117 138/219/117 139/218/117
f 121/194/118 120/192/118 152/207/118 153/206/118
f 108/195/119 107/193/119 139/218/119 140/217/119
f 122/196/120 121/194/120 153/206/120 154/205/120
f 109/65/121 108/195/121 140/217/121 141/216/121
f 123/169/122 122/196/122 154/205/122 155/204/122
f 110/66/123 109/65/123 141/216/123 142/215/123
f 124/170/124 123/169/124 155/204/124 156/203/124
f 111/171/125 110/66/125 142/215/125 143/214/125
f 97/173/126 98/172/126 130/198/126 129/197/126
f 125/174/127 124/170/127 156/203/127 157/202/127
f 112/166/128 111/171/128 143/214/128 144/167/128
f 99/175/129 97/173/129 129/197/129 131/226/129
f 126/176/130 125/174/130 157/202/130 158/201/130
usemtl Crust
f 1/1/1 66/2/1 65/3/1 3/4/1
f 3/4/2 65/3/2 67/5/2 5/6/2
f 5/6/3 67/5/3 68/7/3 7/8/3
f 7/8/4 68/7/4 69/9/4 9/10/4
f 9/10/5 69/9/5 70/11/5 11/12/5
f 11/12/6 70/11/6 71/13/6 13/14/6
f 13/14/7 71/13/7 72/15/7 15/16/7
f 15/16/8 72/15/8 73/17/8 17/18/8
f 17/18/9 73/17/9 74/19/9 19/20/9
f 19/20/10 74/19/10 75/21/10 21/22/10
f 21/22/11 75/21/11 76/23/11 23/24/11
f 23/24/12 76/23/12 77/25/12 25/26/12
f 25/26/13 77/25/13 78/27/13 27/28/13
f 27/28/14 78/27/14 79/29/14 29/30/14
f 29/30/15 79/29/15 80/31/15 31/32/15
f 31/32/16 80/31/16 81/33/16 33/34/16
f 33/34/17 81/33/17 82/35/17 35/36/17
f 35/36/18 82/35/18 83/37/18 37/38/18
f 37/38/19 83/37/19 84/39/19 39/40/19
f 39/40/20 84/39/20 85/41/20 41/42/20
f 41/42/21 85/41/21 86/43/21 43/44/21
f 43/44/22 86/43/22 87/45/22 45/46/22
f 45/46/23 87/45/23 88/47/23 47/48/23
f 47/48/24 88/47/24 89/49/24 49/50/24
f 49/50/25 89/49/25 90/51/25 51/52/25
f 51/52/26 90/51/26 91/53/26 53/54/26
f 53/54/27 91/53/27 92/55/27 55/56/27
f 55/56/28 92/55/28 93/57/28 57/58/28
f 57/58/29 93/57/29 94/59/29 59/60/29
f 59/60/30 94/59/30 95/61/30 61/62/30
f 61/67/32 95/68/32 96/69/32 63/70/32
f 63/70/33 96/69/33 66/2/33 1/1/33
f 1/71/34 3/72/34 5/73/34 7/74/34 9/75/34 11/76/34 13/77/34 15/78/34 17/79/34 19/80/34 21/81/34 23/82/34 25/83/34 27/84/34 29/85/34 31/86/34 33/87/34 35/88/34 37/89/34 39/90/34 41/91/34 43/92/34 45/93/34 47/94/34 49/95/34 51/96/34 53/97/34 55/98/34 57/99/34 59/100/34 61/101/34 63/102/34
